<?xml version="1.0" encoding="iso-8859-1"?>
<!-- Generator: Adobe Illustrator 19.0.0, SVG Export Plug-In . SVG Version: 6.00 Build 0)  -->
<svg version="1.1" id="Layer_1" xmlns="http://www.w3.org/2000/svg" xmlns:xlink="http://www.w3.org/1999/xlink" x="0px" y="0px"
	 viewBox="0 0 512 512" style="enable-background:new 0 0 512 512;" xml:space="preserve">
<path style="fill:#1E0478;" d="M512,237.756c0,11.444-2.749,22.857-7.939,32.98c-0.107,0.202-12.254,20.587-12.254,20.587v139.985
	c0,14.588-11.871,26.448-26.458,26.448l-413.668-0.224c-14.566,0-26.426-11.86-26.426-26.437V188.75c0,0-17.22-28.888-17.326-29.09
	c-5.264-10.262-8.002-21.823-7.928-33.416c0.224-39.149,32.266-71.447,71.404-71.99c19.564-0.288,37.977,7.139,51.883,20.853
	c3.346,3.303,6.319,6.873,8.919,10.656l333.174,0.17c14.577,0.021,26.426,11.881,26.426,26.448v75.24
	C504.829,201.164,512,218.885,512,237.756z M485.244,260.73c3.612-7.161,5.445-14.886,5.445-22.974
	c0-13.789-5.413-26.714-15.227-36.4c-9.814-9.675-22.835-14.897-36.624-14.716c-27.62,0.384-50.231,23.176-50.391,50.807
	c-0.053,8.194,1.78,16.026,5.434,23.283l45.692,76.572l32.212-53.993c0-0.011,0.011-0.021,0.011-0.032L485.244,260.73z
	 M470.496,431.308V327.041l-12.638,21.184c-3.879,6.511-10.72,10.389-18.296,10.389c-7.576,0-14.407-3.879-18.285-10.389
	c0,0-46.107-77.286-46.214-77.489c-5.253-10.262-8.003-21.812-7.928-33.416c0.234-39.149,32.266-71.447,71.404-71.99
	c11.252-0.17,22.111,2.227,31.957,6.894V112.38c0-2.824-2.302-5.136-5.136-5.136l-19.298-0.011L329.265,224.032l18.839,18.839
	c4.156,4.166,4.156,10.912,0,15.078c-2.089,2.078-4.816,3.111-7.544,3.111c-2.717,0-5.445-1.034-7.534-3.111l-18.839-18.839
	l-36.347,36.347l30.571,30.582c0.011,0,0.011,0,0.011,0.011l42.591,42.591l22.345-22.345c3.74-3.74,9.814-3.74,13.554,0
	c3.751,3.74,3.751,9.814,0,13.565l-22.334,22.334l74.228,74.239l26.554,0.011C468.184,436.444,470.496,434.142,470.496,431.308z
	 M367.498,158.669l51.457-51.446l-102.956-0.053L367.498,158.669z M312.972,436.358l98.694,0.053l-60.653-60.653l-49.326,49.326
	L312.972,436.358z M264.275,261.902l89.668-89.668l-57.392-57.392l-89.668,89.668l24.594,24.594c0.011,0,0.011,0,0.011,0
	c0,0.011,0,0.011,0,0.011L264.275,261.902z M288.123,411.52l49.326-49.326l-35.814-35.814l-49.326,49.326L288.123,411.52z
	 M238.744,362.141l49.326-49.326l-63.37-63.359l-49.315,49.315L238.744,362.141z M175.118,436.284l110.713,0.064l-84.863-84.863
	l-55.325,55.325L175.118,436.284z M193.329,190.945l83.797-83.797l-134.955-0.064c1.758,6.298,2.685,12.872,2.685,19.596
	c0,11.444-2.739,22.846-7.928,32.98c-0.107,0.202-46.214,77.489-46.214,77.489c-3.879,6.5-10.709,10.389-18.285,10.389
	c-7.576,0-14.417-3.889-18.296-10.389l-7.566-12.68v138.504l82.944-82.944l-21.205-21.194c-3.74-3.751-3.74-9.825,0-13.565
	c3.751-3.74,9.825-3.74,13.565,0l39.948,39.948l49.326-49.326l-61.388-61.388c-3.751-3.74-3.751-9.814,0-13.565
	c3.74-3.74,9.814-3.74,13.565,0L193.329,190.945z M132.08,393.245l55.325-55.325l-44.339-44.328l-55.325,55.325L132.08,393.245z
	 M51.693,436.22l96.286,0.053l-73.791-73.791l-27.62,27.609v41.003C46.567,433.918,48.869,436.22,51.693,436.22z M118.11,149.654
	c3.602-7.161,5.434-14.886,5.434-22.974c0-8.823-2.216-17.284-6.383-24.775c-0.117-0.192-0.224-0.373-0.32-0.565
	c-2.302-4.007-5.136-7.725-8.525-11.061c-9.814-9.686-22.803-14.886-36.624-14.716c-27.62,0.384-50.221,23.176-50.38,50.807
	c-0.053,8.194,1.78,16.026,5.434,23.283l45.692,76.572L118.11,149.654z"/>
<path style="fill:#94E7EF;" d="M490.689,237.756c0,8.088-1.833,15.813-5.445,22.974l-13.448,22.548c0,0.011-0.011,0.021-0.011,0.032
	l-32.212,53.993l-45.692-76.572c-3.655-7.257-5.488-15.089-5.434-23.283c0.16-27.63,22.771-50.423,50.391-50.807
	c13.789-0.181,26.81,5.04,36.624,14.716C485.276,211.042,490.689,223.968,490.689,237.756z M469.186,237.756
	c0-16.335-13.288-29.623-29.623-29.623s-29.623,13.288-29.623,29.623s13.288,29.623,29.623,29.623S469.186,254.092,469.186,237.756z
	"/>
<path style="fill:#9B8CCC;" d="M470.496,327.041v104.267c0,2.834-2.312,5.136-5.136,5.136l-26.554-0.011l-74.228-74.239
	l22.334-22.334c3.751-3.751,3.751-9.825,0-13.565c-3.74-3.74-9.814-3.74-13.554,0l-22.345,22.345l-42.591-42.591
	c0-0.011,0-0.011-0.011-0.011l-30.571-30.582l36.347-36.347l18.839,18.839c2.089,2.078,4.816,3.111,7.534,3.111
	c2.728,0,5.456-1.034,7.544-3.111c4.156-4.166,4.156-10.911,0-15.078l-18.839-18.839l116.798-116.798l19.298,0.011
	c2.834,0,5.136,2.312,5.136,5.136v59.843c-9.846-4.667-20.704-7.065-31.957-6.894c-39.139,0.543-71.17,32.841-71.404,71.99
	c-0.075,11.604,2.675,23.155,7.928,33.417c0.107,0.202,46.214,77.489,46.214,77.489c3.879,6.511,10.709,10.389,18.285,10.389
	c7.576,0,14.417-3.879,18.296-10.389L470.496,327.041z"/>
<path style="fill:#1E0478;" d="M439.563,208.133c16.335,0,29.623,13.288,29.623,29.623s-13.288,29.623-29.623,29.623
	c-16.335,0-29.623-13.288-29.623-29.623S423.227,208.133,439.563,208.133z M447.874,237.756c0-4.582-3.719-8.311-8.311-8.311
	c-4.582,0-8.311,3.73-8.311,8.311c0,4.582,3.73,8.312,8.311,8.312C444.155,246.068,447.874,242.338,447.874,237.756z"/>
<path style="fill:#FFFFFF;" d="M439.563,229.445c4.593,0,8.311,3.73,8.311,8.311c0,4.582-3.719,8.312-8.311,8.312
	c-4.582,0-8.311-3.73-8.311-8.312C431.251,233.174,434.981,229.445,439.563,229.445z"/>
<g>
	<polygon style="fill:#9B8CCC;" points="418.954,107.223 367.498,158.669 315.998,107.17 	"/>
	<polygon style="fill:#9B8CCC;" points="411.666,436.412 312.972,436.358 301.688,425.085 351.013,375.759 	"/>
	<path style="fill:#9B8CCC;" d="M353.943,172.234l-89.668,89.668l-32.788-32.788c0,0,0,0,0-0.011c0,0,0,0-0.011,0l-24.594-24.594
		l89.668-89.668L353.943,172.234z"/>
	
		<rect x="259.998" y="343.627" transform="matrix(-0.7071 0.7071 -0.7071 -0.7071 764.2682 421.3315)" style="fill:#9B8CCC;" width="69.752" height="50.649"/>
	<polygon style="fill:#9B8CCC;" points="288.069,312.815 238.744,362.141 175.385,298.771 224.7,249.456 	"/>
	<polygon style="fill:#9B8CCC;" points="285.832,436.348 175.118,436.284 145.645,406.81 200.969,351.485 	"/>
	<path style="fill:#9B8CCC;" d="M277.126,107.149l-83.797,83.797l-30.007-30.007c-3.751-3.74-9.825-3.74-13.565,0
		c-3.751,3.751-3.751,9.825,0,13.565l61.388,61.388l-49.326,49.326l-39.948-39.948c-3.74-3.74-9.814-3.74-13.565,0
		c-3.74,3.74-3.74,9.814,0,13.565l21.205,21.194l-82.944,82.944V224.469l7.566,12.68c3.879,6.5,10.72,10.389,18.296,10.389
		s14.407-3.889,18.285-10.389c0,0,46.107-77.286,46.214-77.489c5.189-10.134,7.928-21.535,7.928-32.98
		c0-6.724-0.927-13.298-2.685-19.596L277.126,107.149z"/>
	<polygon style="fill:#9B8CCC;" points="187.404,337.92 132.08,393.245 87.741,348.917 143.066,293.592 	"/>
	<path style="fill:#9B8CCC;" d="M147.978,436.273l-96.286-0.053c-2.824,0-5.125-2.302-5.125-5.125v-41.003l27.62-27.609
		L147.978,436.273z"/>
</g>
<path style="fill:#94E7EF;" d="M123.544,126.681c0,8.088-1.833,15.813-5.434,22.974l-45.671,76.572l-45.692-76.572
	c-3.655-7.257-5.488-15.089-5.434-23.283c0.16-27.63,22.761-50.423,50.38-50.807c13.821-0.171,26.81,5.03,36.624,14.716
	c3.389,3.335,6.223,7.054,8.525,11.061c0.096,0.192,0.202,0.373,0.32,0.565C121.328,109.397,123.544,117.858,123.544,126.681z
	 M102.052,126.681c0-16.335-13.288-29.623-29.623-29.623s-29.623,13.288-29.623,29.623s13.288,29.623,29.623,29.623
	S102.052,143.016,102.052,126.681z"/>
<path style="fill:#1E0478;" d="M72.429,97.057c16.335,0,29.623,13.288,29.623,29.623s-13.288,29.623-29.623,29.623
	s-29.623-13.288-29.623-29.623S56.093,97.057,72.429,97.057z M80.74,126.681c0-4.593-3.73-8.312-8.312-8.312
	c-4.582,0-8.312,3.719-8.312,8.312c0,4.582,3.73,8.312,8.312,8.312C77.011,134.992,80.74,131.263,80.74,126.681z"/>
<path style="fill:#FFFFFF;" d="M72.429,118.369c4.582,0,8.312,3.719,8.312,8.312c0,4.582-3.73,8.312-8.312,8.312
	c-4.582,0-8.312-3.73-8.312-8.312C64.117,122.088,67.847,118.369,72.429,118.369z"/>
<g>
</g>
<g>
</g>
<g>
</g>
<g>
</g>
<g>
</g>
<g>
</g>
<g>
</g>
<g>
</g>
<g>
</g>
<g>
</g>
<g>
</g>
<g>
</g>
<g>
</g>
<g>
</g>
<g>
</g>
</svg>
