<?xml version="1.0" standalone="no"?>
<!DOCTYPE svg PUBLIC "-//W3C//DTD SVG 20010904//EN"
 "http://www.w3.org/TR/2001/REC-SVG-20010904/DTD/svg10.dtd">
<svg version="1.0" xmlns="http://www.w3.org/2000/svg"
 width="1152.000000pt" height="1536.000000pt" viewBox="0 0 1152.000000 1536.000000"
 preserveAspectRatio="xMidYMid meet">
<metadata>

</metadata>
<g transform="translate(0.000000,1536.000000) scale(0.100000,-0.100000)"
fill="#ffffff" stroke="none">
<path d="M0 7680 l0 -7680 5760 0 5760 0 0 7680 0 7680 -5760 0 -5760 0 0
-7680z m8530 6754 c131 -26 285 -76 350 -114 8 -5 35 -20 60 -32 25 -13 88
-65 140 -116 l94 -94 70 7 c38 4 83 11 100 16 47 14 192 11 276 -5 392 -76
600 -382 524 -771 -17 -87 -38 -174 -58 -245 -8 -25 -21 -70 -29 -100 -44
-151 -84 -280 -134 -425 -30 -88 -59 -176 -65 -195 -5 -19 -14 -39 -19 -44 -5
-6 -9 -19 -9 -30 0 -12 -7 -30 -15 -40 -8 -11 -15 -29 -15 -41 0 -12 -4 -25
-9 -30 -5 -6 -21 -47 -36 -93 -16 -45 -32 -85 -37 -88 -4 -3 -8 -14 -8 -25 0
-10 -4 -27 -9 -37 -21 -39 -51 -109 -51 -119 0 -6 -6 -24 -14 -40 -18 -36 -33
-71 -96 -223 -29 -69 -62 -145 -73 -170 -48 -107 -97 -215 -149 -330 -44 -95
-303 -614 -344 -688 -51 -94 -86 -157 -114 -210 -21 -40 -69 -125 -117 -207
-65 -113 -120 -263 -143 -390 -13 -73 -31 -169 -45 -240 -14 -70 -40 -214 -49
-270 -3 -16 -11 -68 -19 -115 -8 -47 -20 -119 -27 -160 -6 -41 -18 -110 -26
-153 -8 -42 -14 -91 -14 -108 0 -16 -7 -74 -15 -127 -8 -53 -21 -171 -30 -262
-9 -91 -23 -228 -30 -305 -37 -376 -72 -1081 -60 -1200 3 -27 10 -150 15 -273
21 -480 40 -645 82 -705 38 -53 124 -70 240 -46 141 28 452 114 526 145 18 8
41 14 51 14 10 0 32 7 47 15 16 8 37 15 46 15 10 0 32 6 50 14 51 22 135 43
226 57 104 16 218 0 308 -43 61 -30 134 -88 134 -107 0 -6 4 -11 8 -11 4 0 18
-21 31 -46 17 -37 22 -64 22 -130 0 -76 -3 -90 -33 -147 -42 -79 -52 -91 -173
-212 -113 -114 -192 -185 -205 -185 -4 0 -10 -4 -12 -10 -1 -5 -46 -41 -98
-79 -52 -39 -100 -75 -107 -81 -7 -5 -17 -10 -23 -10 -5 0 -10 -4 -10 -9 0 -5
-9 -13 -20 -16 -11 -3 -26 -12 -32 -18 -39 -37 -312 -166 -441 -207 -322 -104
-626 -145 -904 -120 -174 15 -371 53 -451 86 -18 8 -40 14 -48 14 -9 0 -28 6
-42 14 -15 8 -47 22 -72 31 -58 23 -176 81 -215 106 -16 10 -39 23 -50 29 -39
19 -53 29 -173 121 -100 76 -239 209 -312 299 -25 30 -48 57 -52 58 -5 2 -8
10 -8 18 0 8 -4 14 -10 14 -5 0 -21 20 -36 45 -14 25 -30 45 -35 45 -5 0 -9 5
-9 11 0 5 -19 40 -43 77 -38 59 -142 263 -177 347 -20 50 -80 239 -80 254 0 8
-6 37 -14 65 -21 76 -37 170 -47 278 -8 101 -20 138 -43 138 -16 0 -68 -50
-191 -184 -49 -54 -108 -117 -130 -140 -22 -23 -85 -91 -140 -151 -55 -61
-120 -131 -145 -157 -25 -25 -101 -106 -170 -180 -352 -375 -554 -575 -820
-811 -14 -13 -45 -38 -70 -57 -25 -18 -49 -39 -55 -45 -5 -6 -57 -46 -115 -89
-58 -43 -113 -84 -123 -92 -9 -8 -20 -14 -23 -14 -8 0 -69 -44 -72 -52 -2 -5
-8 -8 -13 -8 -11 0 -72 -42 -77 -52 -2 -5 -7 -8 -12 -8 -5 0 -53 -26 -107 -57
-87 -52 -307 -163 -388 -198 -16 -6 -41 -17 -55 -23 -14 -6 -50 -21 -80 -32
-30 -12 -66 -26 -80 -32 -25 -10 -112 -38 -190 -62 -246 -76 -549 -98 -770
-56 -243 46 -376 103 -555 238 -71 54 -177 160 -212 214 -14 21 -30 38 -34 38
-5 0 -9 7 -9 15 0 8 -4 15 -8 15 -5 0 -14 10 -21 23 -6 12 -20 36 -31 52 -11
17 -24 39 -30 50 -6 11 -19 34 -29 50 -19 29 -79 149 -105 210 -7 17 -20 46
-29 65 -8 19 -23 55 -32 80 -9 25 -23 60 -31 78 -8 18 -14 40 -14 50 0 9 -6
34 -14 57 -44 125 -88 343 -122 605 -12 95 -16 211 -16 482 0 408 15 596 73
918 6 36 15 88 19 115 4 28 12 75 19 105 35 166 44 211 57 270 8 36 22 91 29
123 8 31 22 85 31 120 35 143 122 444 148 517 26 70 38 106 46 135 5 17 18 55
30 85 12 30 25 66 30 80 4 14 12 36 18 50 6 14 20 50 32 80 11 30 26 66 32 80
6 14 18 41 26 60 9 19 21 49 28 65 7 17 26 59 42 95 16 36 35 80 43 99 15 36
248 501 281 561 11 19 28 49 38 65 10 17 29 50 42 75 13 25 25 47 28 50 3 3
32 50 65 105 33 55 63 102 67 103 5 2 8 8 8 13 0 6 9 22 19 37 10 15 63 95
118 177 118 179 146 219 156 223 4 2 7 8 7 13 0 5 6 17 14 26 8 10 49 65 92
123 42 58 80 107 83 110 3 3 19 23 36 45 16 22 32 42 35 45 3 3 30 36 60 75
56 71 87 109 105 129 6 6 29 34 51 61 44 56 81 100 105 124 8 9 38 43 65 76
27 33 67 80 89 105 64 71 532 540 539 540 3 0 25 19 49 43 23 24 71 67 107 97
36 30 75 65 87 77 12 13 27 23 33 23 5 0 10 3 10 8 0 4 34 34 75 67 41 33 75
63 75 68 0 4 7 7 15 7 8 0 15 4 15 8 0 5 27 28 60 52 33 24 60 47 60 52 0 4 7
8 15 8 8 0 15 3 15 8 0 4 21 21 45 37 25 17 45 33 45 38 0 4 7 7 15 7 8 0 15
4 15 9 0 5 20 22 45 38 25 15 45 31 45 36 0 4 5 7 10 7 6 0 18 7 28 16 9 8 49
37 87 64 39 27 75 54 82 60 7 5 15 10 19 10 4 0 12 6 18 13 9 11 359 244 441
294 199 121 288 173 295 173 6 0 10 4 10 8 0 4 24 20 53 36 28 15 79 43 112
61 33 19 71 40 85 48 14 7 50 26 80 42 30 16 57 31 60 34 3 4 88 47 190 97
193 95 236 115 335 159 33 15 80 36 105 47 49 22 84 37 115 48 11 5 40 17 65
28 25 11 72 30 105 42 33 13 83 31 110 42 62 24 331 113 403 133 217 62 305
82 522 118 126 22 480 22 590 1z m-1202 -11060 c108 -54 147 -169 88 -259 -18
-27 -110 -75 -144 -75 -38 0 -85 27 -151 87 l-61 55 0 65 c0 110 43 152 156
153 45 0 73 -6 112 -26z m-720 -343 c51 -26 135 -120 169 -188 37 -76 28 -127
-32 -182 -38 -35 -51 -41 -89 -41 -36 0 -52 6 -81 31 -22 20 -35 40 -35 55 0
67 -56 132 -105 120 -55 -14 -144 -272 -165 -481 -18 -172 -8 -412 19 -490 26
-71 21 -105 -19 -139 -60 -50 -163 -59 -229 -20 -56 33 -63 60 -55 202 4 78 0
273 -11 504 -9 208 -15 416 -14 462 4 77 7 87 33 115 54 56 179 64 251 16 29
-21 35 -22 46 -9 22 27 96 64 140 72 56 10 126 -1 177 -27z m-2908 -31 c53
-34 54 -36 40 -115 -24 -148 71 -545 191 -790 67 -136 72 -142 104 -125 15 8
38 39 55 74 68 138 110 398 136 831 6 95 8 101 38 131 72 72 201 62 240 -20
44 -93 -14 -424 -145 -821 -75 -226 -141 -365 -212 -441 -48 -52 -57 -57 -105
-62 -42 -4 -62 0 -105 21 -96 48 -168 131 -250 290 -104 202 -219 592 -257
874 -16 117 9 168 96 198 47 16 100 2 174 -45z m-895 25 c248 -52 390 -230
441 -555 14 -88 16 -156 11 -430 -7 -351 -14 -420 -48 -457 -30 -31 -89 -46
-147 -37 -66 10 -109 54 -118 121 l-6 50 -87 -30 c-72 -26 -105 -31 -206 -35
-140 -5 -210 9 -320 62 -139 69 -205 153 -205 263 1 128 93 236 287 333 115
57 180 70 371 70 l162 0 0 78 c0 163 -39 271 -112 312 -35 19 -51 22 -118 18
-138 -8 -202 -68 -219 -204 -9 -78 -31 -104 -88 -104 -48 0 -96 25 -139 72
-36 40 -36 42 -32 112 7 102 45 182 120 252 33 30 77 63 99 74 93 48 229 61
354 35z m2440 0 c248 -52 390 -231 441 -555 14 -87 16 -157 11 -430 -6 -350
-14 -420 -48 -457 -30 -31 -89 -46 -147 -37 -66 10 -109 54 -118 121 l-6 50
-87 -30 c-72 -26 -105 -31 -206 -35 -140 -5 -210 9 -320 62 -139 69 -205 153
-205 263 1 128 93 236 287 333 115 57 180 70 371 70 l162 0 0 78 c0 163 -39
271 -112 312 -35 19 -51 22 -118 18 -138 -8 -202 -68 -219 -204 -9 -78 -31
-104 -88 -104 -48 0 -96 25 -139 72 -36 40 -36 42 -32 112 7 102 45 182 120
252 33 30 77 63 99 74 93 48 229 61 354 35z m3010 0 c248 -52 390 -230 441
-555 14 -88 16 -156 11 -430 -7 -351 -14 -420 -48 -457 -30 -31 -89 -46 -147
-37 -66 10 -109 54 -118 121 l-6 50 -87 -30 c-72 -26 -105 -31 -206 -35 -140
-5 -210 9 -320 62 -139 69 -205 153 -205 263 1 128 93 236 287 333 115 57 180
70 371 70 l162 0 0 78 c0 163 -39 271 -112 312 -35 19 -51 22 -118 18 -138 -8
-202 -68 -219 -204 -9 -78 -31 -104 -88 -104 -48 0 -96 25 -139 72 -36 40 -36
42 -32 112 7 102 45 182 120 252 33 30 77 63 99 74 93 48 229 61 354 35z
m-924 -49 c14 -3 44 -19 66 -35 l41 -30 -31 -93 c-30 -91 -31 -98 -35 -313 -2
-121 1 -425 6 -675 5 -250 5 -494 1 -541 -19 -209 -135 -401 -284 -470 -151
-71 -282 -54 -542 72 -184 90 -258 166 -237 246 13 53 53 78 123 78 56 0 60
-2 114 -52 181 -164 404 -157 491 17 58 115 66 229 56 802 -5 260 -10 574 -11
696 l-1 224 27 28 c19 20 45 33 79 40 73 14 90 17 101 14 6 -1 22 -5 36 -8z"/>
<path d="M8225 13869 c-27 -5 -77 -13 -110 -19 -33 -5 -91 -19 -130 -30 -38
-12 -86 -25 -105 -30 -45 -11 -98 -29 -132 -46 -14 -8 -35 -14 -46 -14 -12 0
-23 -4 -26 -9 -3 -4 -26 -14 -51 -21 -25 -7 -48 -17 -51 -21 -3 -5 -15 -9 -28
-9 -12 0 -26 -4 -32 -9 -5 -5 -38 -21 -74 -36 -112 -47 -361 -165 -370 -176
-3 -4 -30 -19 -60 -34 -87 -43 -115 -58 -120 -64 -3 -4 -24 -15 -47 -26 -24
-11 -43 -23 -43 -27 0 -3 -12 -11 -27 -17 -16 -6 -41 -20 -58 -31 -16 -11 -39
-24 -50 -30 -24 -13 -46 -27 -102 -63 -24 -15 -47 -27 -53 -27 -5 0 -10 -4
-10 -9 0 -5 -13 -14 -30 -21 -16 -7 -30 -16 -30 -21 0 -5 -5 -9 -10 -9 -12 0
-73 -41 -78 -52 -2 -5 -8 -8 -13 -8 -11 0 -72 -42 -77 -52 -2 -5 -10 -8 -17
-8 -7 0 -15 -3 -17 -7 -3 -9 -64 -53 -73 -53 -3 0 -13 -7 -22 -15 -10 -9 -92
-70 -183 -137 -91 -67 -167 -124 -170 -127 -3 -4 -36 -31 -75 -61 -38 -30 -72
-57 -75 -60 -3 -3 -27 -23 -55 -45 -27 -22 -57 -46 -66 -55 -9 -8 -27 -24 -40
-35 -67 -57 -186 -160 -200 -174 -9 -9 -27 -25 -40 -36 -171 -145 -569 -536
-688 -675 -35 -41 -75 -85 -88 -97 -12 -12 -23 -26 -23 -32 0 -5 -4 -11 -9
-13 -8 -3 -29 -26 -126 -143 -22 -26 -48 -57 -58 -69 -10 -11 -35 -42 -55 -68
-20 -27 -40 -48 -44 -48 -4 0 -8 -6 -8 -14 0 -8 -4 -16 -9 -18 -4 -1 -59 -70
-121 -153 -61 -82 -118 -158 -126 -168 -8 -9 -14 -21 -14 -26 0 -5 -3 -11 -7
-13 -11 -4 -36 -40 -188 -269 -71 -108 -136 -205 -143 -215 -7 -10 -15 -27
-18 -36 -4 -10 -10 -18 -14 -18 -4 0 -13 -13 -20 -30 -7 -16 -16 -30 -21 -30
-5 0 -9 -4 -9 -9 0 -9 -69 -131 -80 -141 -3 -3 -14 -23 -25 -45 -11 -22 -26
-46 -32 -53 -7 -7 -13 -17 -13 -22 0 -5 -19 -42 -42 -82 -24 -40 -65 -118 -93
-173 -27 -55 -53 -102 -56 -105 -3 -3 -36 -68 -74 -145 -37 -77 -87 -181 -111
-230 -24 -50 -44 -93 -44 -97 0 -6 -12 -34 -74 -173 -7 -16 -21 -50 -31 -75
-10 -25 -23 -58 -30 -75 -7 -16 -21 -50 -30 -75 -10 -25 -23 -58 -30 -75 -13
-29 -31 -76 -62 -160 -8 -22 -21 -55 -29 -73 -8 -18 -14 -41 -14 -50 0 -10 -4
-22 -8 -27 -5 -6 -19 -41 -31 -80 -12 -38 -28 -86 -36 -105 -18 -47 -69 -211
-120 -390 -9 -30 -22 -75 -29 -100 -14 -45 -32 -116 -61 -230 -46 -185 -41
-161 -89 -415 -139 -738 -128 -1313 32 -1740 39 -105 73 -175 110 -225 46 -62
77 -80 137 -80 46 0 149 26 192 49 10 5 49 24 88 43 38 18 91 45 116 60 26 14
73 41 105 59 70 39 248 159 252 171 2 4 10 8 18 8 8 0 14 4 14 8 0 5 19 22 43
39 23 17 59 47 80 67 21 20 41 36 43 36 3 0 15 10 27 23 12 12 58 53 102 92
44 38 92 82 107 97 15 15 29 28 33 28 7 0 375 368 375 375 0 3 13 18 28 33 15
15 59 63 97 107 39 44 80 90 92 102 13 12 23 25 23 28 0 3 13 18 28 33 16 15
53 56 82 92 29 36 64 75 76 87 13 12 24 26 24 32 0 5 4 11 9 13 4 2 35 35 67
73 83 99 96 114 119 139 11 12 43 50 70 84 28 34 53 62 58 62 4 0 7 7 7 15 0
8 4 15 8 15 5 0 28 27 52 60 24 33 47 60 52 60 4 0 8 7 8 15 0 8 4 15 8 15 5
0 23 19 40 43 17 23 43 56 57 72 46 53 59 69 105 128 25 31 48 57 52 57 5 0 8
7 8 15 0 8 4 15 8 15 4 0 24 21 44 48 35 45 51 65 101 122 12 14 40 47 61 75
46 58 75 92 96 114 9 9 33 39 55 66 44 55 70 86 100 119 11 12 43 50 70 84 28
34 53 62 58 62 4 0 7 4 7 10 0 5 12 22 28 38 15 15 52 58 82 95 30 37 58 67
63 67 4 0 7 7 7 15 0 8 4 15 8 15 4 0 24 21 44 48 20 26 46 58 58 72 12 14 30
35 40 47 11 12 31 40 46 63 15 22 31 40 35 40 5 0 9 7 9 15 0 8 4 15 9 15 5 0
13 9 16 20 3 11 12 26 18 33 13 13 35 59 60 122 19 49 39 121 93 340 14 55 24
91 59 215 53 183 66 226 85 280 6 19 16 51 20 70 4 19 14 51 20 70 7 19 18 51
25 70 7 19 18 51 24 70 7 19 16 49 21 65 5 17 18 55 30 85 12 30 24 66 27 80
3 14 9 30 13 35 4 6 13 26 18 45 6 19 20 60 32 90 33 85 45 119 75 205 15 44
32 84 36 90 5 5 9 17 9 26 0 10 6 30 14 46 8 15 22 48 31 73 9 25 23 59 30 75
7 17 20 50 30 75 22 57 43 107 61 143 8 16 14 33 14 38 0 5 13 37 29 71 15 35
38 88 51 118 25 63 59 138 101 227 16 35 29 65 29 69 0 5 56 122 232 484 29
58 55 107 60 108 4 2 8 12 8 22 0 10 6 25 13 32 6 7 41 72 77 143 36 72 68
132 71 135 7 6 32 53 49 90 6 13 14 27 18 30 4 3 16 23 27 45 11 22 31 58 45
80 41 67 49 79 56 95 4 8 27 45 51 82 24 37 43 71 43 77 0 5 3 11 8 13 10 5
52 66 52 77 0 5 3 11 8 13 8 3 52 64 52 73 0 3 7 13 15 23 8 9 85 112 171 227
86 116 160 212 165 213 5 2 9 8 9 13 0 6 12 21 26 34 14 13 44 48 66 77 43 57
46 91 11 125 -64 63 -290 100 -448 72z"/>
<path d="M2690 2164 c-94 -15 -155 -39 -196 -79 -43 -41 -50 -61 -44 -120 5
-56 102 -93 210 -81 67 8 162 51 214 97 64 56 84 131 46 169 -17 17 -32 20
-112 19 -51 -1 -104 -3 -118 -5z"/>
<path d="M5130 2164 c-94 -15 -155 -39 -196 -79 -43 -41 -50 -61 -44 -120 5
-56 102 -93 210 -81 67 8 162 51 214 97 64 56 84 131 46 169 -17 17 -32 20
-112 19 -51 -1 -104 -3 -118 -5z"/>
<path d="M8140 2164 c-94 -15 -155 -39 -196 -79 -43 -41 -50 -61 -44 -120 5
-56 102 -93 210 -81 67 8 162 51 214 97 64 56 84 131 46 169 -17 17 -32 20
-112 19 -51 -1 -104 -3 -118 -5z"/>
</g>
</svg>
