<svg xmlns="http://www.w3.org/2000/svg" xmlns:xlink="http://www.w3.org/1999/xlink" version="1.1" x="0px" y="0px" viewBox="0 0 160 200" style="enable-background:new 0 0 160 160;" xml:space="preserve"><g><polygon points="57.968,84.009 51.256,80.162 51.256,87.856  "/><path d="M29.878,104.513V92.09l10.878-6.234v8.018c0.004-0.003,0.008-0.006,0.013-0.008l6.987-4.004v-3.637v-6.408   c0-0.114-0.012-0.227-0.023-0.339c-0.003-0.035-0.003-0.07-0.007-0.105c-0.025-0.198-0.071-0.391-0.129-0.58   c-0.015-0.05-0.033-0.099-0.051-0.148c-0.067-0.188-0.146-0.372-0.244-0.546c-0.004-0.007-0.006-0.015-0.01-0.022   c-0.001-0.002-0.003-0.003-0.004-0.005c-0.103-0.18-0.227-0.346-0.361-0.505c-0.035-0.042-0.07-0.082-0.107-0.122   c-0.135-0.146-0.277-0.284-0.437-0.406c-0.016-0.012-0.034-0.021-0.05-0.033c-0.108-0.08-0.22-0.157-0.339-0.225l-5.248-3.008   l-12.63-7.238c-1.078-0.618-2.402-0.618-3.48,0L6.76,76.78c-0.118,0.068-0.228,0.144-0.336,0.223   c-0.018,0.013-0.038,0.024-0.056,0.038c-0.158,0.121-0.3,0.259-0.433,0.403c-0.037,0.04-0.072,0.08-0.107,0.122   c-0.134,0.159-0.257,0.325-0.361,0.505c-0.001,0.002-0.003,0.003-0.004,0.005c-0.004,0.007-0.006,0.015-0.01,0.022   c-0.098,0.174-0.177,0.357-0.244,0.546c-0.018,0.049-0.036,0.098-0.051,0.148c-0.058,0.189-0.104,0.381-0.129,0.58   c-0.004,0.035-0.004,0.07-0.007,0.105C5.012,79.589,5,79.702,5,79.816v20.491c0,1.254,0.671,2.413,1.76,3.037l17.878,10.246   c0.101,0.058,0.206,0.105,0.31,0.152c0.03,0.013,0.058,0.03,0.088,0.043c0.185,0.077,0.375,0.132,0.568,0.176   c0.05,0.011,0.101,0.021,0.152,0.03c0.206,0.037,0.414,0.063,0.622,0.063s0.416-0.025,0.622-0.063   c0.051-0.009,0.102-0.018,0.152-0.03c0.193-0.044,0.383-0.099,0.568-0.176c0.03-0.013,0.058-0.03,0.088-0.043   c0.105-0.047,0.209-0.094,0.31-0.152l9.13-5.232v-8.068L29.878,104.513z M22.878,104.513L12,98.279V85.856l10.878,6.234V104.513z    M26.378,86.028l-10.839-6.212l10.839-6.212l10.839,6.212L26.378,86.028z"/><polygon points="87.004,60.042 87.004,67.732 93.713,63.887  "/><path d="M119.252,49.611V39.568c0-0.114-0.012-0.227-0.023-0.339c-0.003-0.035-0.003-0.07-0.007-0.105   c-0.025-0.198-0.071-0.391-0.129-0.58c-0.015-0.05-0.033-0.099-0.051-0.148c-0.067-0.188-0.146-0.372-0.244-0.546   c-0.004-0.007-0.006-0.015-0.01-0.022c-0.001-0.002-0.003-0.003-0.004-0.005c-0.103-0.18-0.227-0.346-0.361-0.506   c-0.035-0.041-0.07-0.081-0.106-0.121c-0.134-0.145-0.276-0.283-0.434-0.404c-0.018-0.014-0.038-0.025-0.057-0.038   c-0.107-0.079-0.217-0.155-0.334-0.222L99.614,26.286c-1.078-0.618-2.402-0.618-3.48,0L78.256,36.532   c-0.114,0.065-0.221,0.14-0.326,0.217c-0.025,0.018-0.051,0.034-0.075,0.052c-0.154,0.119-0.292,0.253-0.422,0.394   c-0.038,0.041-0.074,0.082-0.11,0.125c-0.133,0.159-0.257,0.325-0.36,0.504c-0.001,0.002-0.003,0.003-0.004,0.005   c-0.004,0.007-0.006,0.015-0.01,0.022c-0.098,0.174-0.177,0.357-0.244,0.546c-0.018,0.049-0.036,0.098-0.051,0.148   c-0.058,0.189-0.104,0.381-0.129,0.58c-0.004,0.035-0.004,0.07-0.007,0.105c-0.011,0.112-0.023,0.225-0.023,0.339v10.042   l6.988,4.005c0.004,0.002,0.008,0.005,0.012,0.008v-8.015l10.878,6.234v11.666l0.02-0.011c2.146-1.23,4.814-1.231,6.961,0   l0.019,0.011V51.842l10.878-6.234v8.015c0.003-0.002,0.005-0.004,0.008-0.005L119.252,49.611z M97.874,45.78l-10.839-6.212   l10.839-6.212l10.839,6.212L97.874,45.78z"/><polygon points="102.035,63.887 108.744,67.732 108.744,60.042  "/><path d="M83.504,69.738V59.689c0-0.114-0.012-0.227-0.023-0.339c-0.003-0.035-0.003-0.07-0.007-0.105   c-0.025-0.198-0.071-0.391-0.129-0.58c-0.015-0.05-0.033-0.099-0.051-0.148c-0.067-0.188-0.146-0.372-0.244-0.546   c-0.004-0.007-0.006-0.015-0.01-0.022c-0.001-0.002-0.003-0.003-0.004-0.005c-0.103-0.18-0.227-0.346-0.361-0.505   c-0.035-0.042-0.07-0.082-0.107-0.122c-0.134-0.145-0.275-0.282-0.434-0.404c-0.018-0.014-0.039-0.025-0.057-0.039   c-0.107-0.079-0.217-0.155-0.334-0.222L63.866,46.406c-1.078-0.618-2.402-0.618-3.48,0L42.508,56.652   c-0.115,0.066-0.223,0.141-0.328,0.218c-0.023,0.017-0.048,0.031-0.07,0.049c-0.155,0.12-0.294,0.254-0.426,0.396   c-0.037,0.04-0.073,0.081-0.109,0.124c-0.133,0.159-0.257,0.325-0.36,0.504c-0.001,0.002-0.003,0.003-0.004,0.005   c-0.004,0.007-0.006,0.015-0.01,0.022c-0.098,0.174-0.177,0.357-0.244,0.546c-0.018,0.049-0.036,0.098-0.051,0.148   c-0.058,0.189-0.104,0.381-0.129,0.58c-0.004,0.035-0.004,0.07-0.007,0.105c-0.011,0.112-0.023,0.225-0.023,0.339v10.049   l6.988,4.005c0.004,0.002,0.008,0.005,0.012,0.008v-8.022l10.878,6.234v11.669l0.02-0.011c2.146-1.23,4.814-1.231,6.961,0   l0.019,0.011v-11.67l10.878-6.234v8.022c0.004-0.002,0.007-0.005,0.011-0.007L83.504,69.738z M62.126,65.901l-10.839-6.212   l10.839-6.212l10.839,6.212L62.126,65.901z"/><polygon points="66.284,84.009 72.996,87.856 72.996,80.162  "/><path d="M119.229,79.477c-0.003-0.035-0.003-0.07-0.007-0.105c-0.025-0.198-0.071-0.391-0.129-0.58   c-0.015-0.05-0.033-0.099-0.051-0.148c-0.067-0.188-0.146-0.372-0.244-0.546c-0.004-0.007-0.006-0.015-0.01-0.022   c-0.001-0.002-0.003-0.003-0.004-0.005c-0.104-0.18-0.228-0.347-0.362-0.506c-0.034-0.041-0.069-0.081-0.105-0.12   c-0.135-0.146-0.278-0.285-0.438-0.408c-0.015-0.011-0.031-0.02-0.047-0.031c-0.109-0.081-0.221-0.158-0.341-0.227L99.614,66.534   c-1.078-0.618-2.402-0.618-3.48,0l-12.63,7.238l-5.248,3.008c-0.117,0.067-0.226,0.143-0.333,0.221   c-0.021,0.015-0.042,0.028-0.063,0.043c-0.156,0.12-0.296,0.256-0.429,0.399c-0.037,0.04-0.073,0.081-0.108,0.124   c-0.133,0.159-0.257,0.325-0.36,0.504c-0.001,0.002-0.003,0.003-0.004,0.005c-0.004,0.007-0.006,0.015-0.01,0.022   c-0.098,0.174-0.177,0.357-0.244,0.546c-0.018,0.049-0.036,0.098-0.051,0.148c-0.058,0.189-0.104,0.381-0.129,0.58   c-0.004,0.035-0.004,0.07-0.007,0.105c-0.011,0.112-0.023,0.225-0.023,0.339v6.408v3.637l6.988,4.005   c0.004,0.002,0.008,0.005,0.012,0.008v-8.018l10.878,6.234v12.423l-7.37-4.224v8.068l9.13,5.232   c0.101,0.058,0.206,0.105,0.31,0.152c0.03,0.013,0.058,0.03,0.088,0.043c0.185,0.077,0.375,0.132,0.568,0.176   c0.05,0.011,0.101,0.021,0.152,0.03c0.206,0.037,0.414,0.063,0.622,0.063s0.416-0.025,0.622-0.063   c0.051-0.009,0.102-0.018,0.152-0.03c0.193-0.044,0.383-0.099,0.568-0.176c0.03-0.013,0.058-0.03,0.088-0.043   c0.105-0.047,0.209-0.094,0.31-0.152l17.878-10.246c1.088-0.624,1.76-1.782,1.76-3.037V79.816   C119.252,79.702,119.24,79.59,119.229,79.477z M97.874,86.028l-10.839-6.212l10.839-6.212l10.839,6.212L97.874,86.028z    M112.252,98.28l-10.878,6.234V92.09l10.878-6.234V98.28z"/><path d="M154.977,59.35c-0.003-0.035-0.003-0.07-0.007-0.105c-0.025-0.198-0.071-0.391-0.129-0.58   c-0.015-0.05-0.033-0.099-0.051-0.148c-0.067-0.188-0.146-0.372-0.244-0.546c-0.004-0.007-0.006-0.015-0.01-0.022   c-0.001-0.002-0.003-0.003-0.004-0.005c-0.103-0.18-0.228-0.347-0.362-0.506c-0.035-0.041-0.07-0.081-0.106-0.121   c-0.134-0.145-0.276-0.283-0.434-0.404c-0.018-0.014-0.039-0.025-0.057-0.039c-0.107-0.079-0.217-0.155-0.334-0.222l-17.878-10.246   c-1.078-0.618-2.402-0.618-3.48,0l-12.63,7.238l-5.248,3.008c-0.115,0.066-0.223,0.141-0.328,0.218   c-0.023,0.017-0.048,0.031-0.07,0.049c-0.155,0.12-0.294,0.254-0.426,0.396c-0.037,0.04-0.073,0.081-0.109,0.124   c-0.133,0.159-0.257,0.325-0.36,0.504c-0.001,0.002-0.003,0.003-0.004,0.005c-0.004,0.007-0.006,0.015-0.01,0.022   c-0.098,0.174-0.177,0.357-0.244,0.546c-0.018,0.049-0.036,0.098-0.051,0.148c-0.058,0.189-0.104,0.381-0.129,0.58   c-0.004,0.035-0.004,0.07-0.007,0.105c-0.011,0.112-0.023,0.225-0.023,0.339v6.415v3.634l6.988,4.005   c0.004,0.002,0.008,0.005,0.012,0.008v-8.022l10.878,6.234v12.423l-7.37-4.224v8.068l9.13,5.232   c0.101,0.058,0.206,0.105,0.31,0.152c0.03,0.013,0.058,0.03,0.088,0.043c0.185,0.077,0.375,0.132,0.568,0.176   c0.05,0.011,0.101,0.021,0.152,0.03c0.206,0.037,0.414,0.063,0.622,0.063s0.416-0.025,0.622-0.063   c0.051-0.009,0.102-0.018,0.152-0.03c0.193-0.044,0.383-0.099,0.568-0.176c0.03-0.013,0.058-0.03,0.088-0.043   c0.105-0.047,0.209-0.094,0.31-0.152l17.878-10.246c1.088-0.624,1.76-1.782,1.76-3.037V59.689   C155,59.575,154.988,59.462,154.977,59.35z M133.622,65.901l-10.839-6.212l10.839-6.212l10.839,6.212L133.622,65.901z M148,78.152   l-10.878,6.234V71.963L148,65.729V78.152z"/><path d="M83.481,99.601c-0.003-0.035-0.003-0.07-0.007-0.106c-0.025-0.198-0.071-0.391-0.129-0.579   c-0.015-0.05-0.033-0.099-0.051-0.149c-0.067-0.188-0.146-0.372-0.244-0.545c-0.004-0.007-0.006-0.015-0.01-0.022   c-0.001-0.002-0.003-0.003-0.004-0.005c-0.104-0.18-0.228-0.347-0.362-0.506c-0.034-0.041-0.068-0.08-0.104-0.119   c-0.135-0.147-0.279-0.286-0.44-0.409c-0.013-0.01-0.028-0.018-0.042-0.028c-0.11-0.082-0.224-0.16-0.345-0.229L63.866,86.658   c-1.078-0.618-2.402-0.618-3.48,0L42.508,96.903c-0.118,0.067-0.228,0.144-0.336,0.223c-0.018,0.013-0.038,0.024-0.056,0.038   c-0.158,0.121-0.3,0.259-0.433,0.404c-0.037,0.04-0.072,0.08-0.107,0.122c-0.134,0.159-0.258,0.326-0.361,0.505   c-0.001,0.002-0.003,0.003-0.004,0.005c-0.004,0.007-0.006,0.015-0.01,0.022c-0.098,0.174-0.176,0.357-0.244,0.545   c-0.018,0.05-0.036,0.099-0.051,0.149c-0.058,0.189-0.104,0.381-0.129,0.579c-0.005,0.035-0.004,0.07-0.007,0.105   c-0.011,0.112-0.023,0.225-0.023,0.339v20.492c0,1.254,0.671,2.413,1.76,3.037l17.878,10.246c0.101,0.058,0.206,0.105,0.31,0.152   c0.03,0.013,0.058,0.03,0.088,0.043c0.185,0.077,0.375,0.132,0.568,0.176c0.05,0.011,0.101,0.021,0.152,0.03   c0.206,0.037,0.414,0.063,0.622,0.063s0.416-0.025,0.622-0.063c0.051-0.009,0.102-0.018,0.152-0.03   c0.193-0.044,0.383-0.099,0.568-0.176c0.03-0.013,0.058-0.03,0.088-0.043c0.105-0.047,0.209-0.094,0.31-0.152l17.878-10.246   c1.088-0.624,1.76-1.782,1.76-3.037V99.94C83.504,99.826,83.492,99.713,83.481,99.601z M62.126,93.728l10.839,6.212l-10.839,6.212   L51.287,99.94L62.126,93.728z M47.748,105.98l10.878,6.234v12.423l-10.878-6.234V105.98z M65.626,124.638v-12.424l10.878-6.234   v12.424L65.626,124.638z"/></g><text x="0" y="175" fill="#000000" font-size="5px" font-weight="bold" font-family="'Helvetica Neue', Helvetica, Arial-Unicode, Arial, Sans-serif">Created by Symbolon</text><text x="0" y="180" fill="#000000" font-size="5px" font-weight="bold" font-family="'Helvetica Neue', Helvetica, Arial-Unicode, Arial, Sans-serif">from the Noun Project</text></svg>